<svg style="width:100%;height:100%;" viewBox="0 0 375 201" fill="none" xmlns="http://www.w3.org/2000/svg">
    <g clip-path="url(#clip0_3_131)">
        <path d="M301.747 86.4468V49.0176C301.747 45.2856 304.423 42.2496 307.712 42.2496H329.289C332.578 42.2496 335.253 45.2856 335.253 49.0176V86.4468C335.253 90.1788 332.578 93.2148 329.289 93.2148H307.712C304.423 93.2148 301.747 90.1788 301.747 86.4468Z" fill="#17C690" />
        <path d="M312.797 58.429H324.203V55.1931H312.797V58.429Z" fill="#3F3D56" />
        <path d="M315.649 52.7662H321.352V42.2496H315.649V52.7662Z" fill="#3F3D56" />
        <path d="M315.649 93.2148H321.352V82.6982H315.649V93.2148Z" fill="#3F3D56" />
        <path d="M286.42 87.9595H253.436C250.148 87.9595 247.472 84.9235 247.472 81.1915V56.7059C247.472 52.9738 250.148 49.9378 253.436 49.9378H286.42C289.709 49.9378 292.384 52.9738 292.384 56.7059V81.1915C292.384 84.9235 289.709 87.9595 286.42 87.9595Z" fill="#17C690" />
        <path d="M276.344 55.1961H264.938V58.432H276.344V55.1961Z" fill="#3F3D56" />
        <path d="M256.74 72.1846V65.7128H247.472V72.1846H256.74Z" fill="#3F3D56" />
        <path d="M292.384 72.1845V65.7128H283.117V72.1845H292.384Z" fill="#3F3D56" />
        <path d="M18.8627 157.951L13.3564 121.501C10.9096 105.305 21.4733 90.3176 35.9348 89.4677L114.432 84.8541L133.167 49.8156C135.65 45.1705 140.091 42.3339 144.879 42.3339H201.282C205.715 42.3339 209.461 46.0648 210.036 51.0533L211.469 79.0895L352.087 79.5672L369.776 145.721L353.357 144.812L354.199 164.878L332.727 165.834L325.569 142.867C324.222 138.542 318.316 133.666 312.177 129.586C298.415 120.441 280.735 123.376 270.321 137.082C267.864 140.315 266.146 143.684 265.666 146.843L262.418 168.222L104.96 165.356L84.3232 132.598C78.2263 125.069 49.4451 122.303 46.8531 132.598L31.2825 158.667L18.8627 157.951H18.8627Z" fill="#E6E6E6" />
        <path d="M190.003 63.6543L194.635 88.4373L135.694 89.8705L148.142 59.5401C149.272 56.7887 151.751 55.0804 154.423 55.2122L182.667 56.6058C186.243 56.7822 189.26 59.6815 190.003 63.6543V63.6543Z" fill="white" />
        <path d="M127.694 87.9595L139.483 53.5611L136.396 50.0589L117.169 83.182L121.076 89.8705L127.694 87.9595Z" fill="white" />
        <path d="M296.52 199.754C311.866 199.754 324.307 185.637 324.307 168.222C324.307 150.808 311.866 136.691 296.52 136.691C281.174 136.691 268.733 150.808 268.733 168.222C268.733 185.637 281.174 199.754 296.52 199.754Z" fill="#3F3D56" />
        <path d="M277.364 168.222C277.364 156.236 285.957 146.485 296.52 146.485C307.083 146.485 315.676 156.236 315.676 168.222C315.676 180.209 307.083 189.96 296.52 189.96C285.957 189.96 277.364 180.209 277.364 168.222ZM277.785 168.222C277.785 179.945 286.189 189.482 296.52 189.482C306.851 189.482 315.255 179.945 315.255 168.222C315.255 156.5 306.851 146.962 296.52 146.962C286.189 146.962 277.785 156.5 277.785 168.222Z" fill="white" />
        <path d="M280.101 168.222C280.101 178.513 287.452 186.855 296.52 186.855C305.588 186.855 312.94 178.513 312.94 168.222C312.94 157.932 305.588 149.59 296.52 149.59C287.452 149.59 280.101 157.932 280.101 168.222ZM307.193 163.761L304.284 165.912L303.166 163.966L307.193 163.761ZM302.764 174.703L303.539 172.553L305.979 176.195L302.764 174.703ZM295.315 182.077L297.362 178.137V182.077H295.315ZM295.315 159.264L297.362 155.323V159.264H295.315ZM286.22 176.195L288.659 172.553L289.434 174.703L286.22 176.195ZM285.005 163.761L289.032 163.966L287.914 165.912L285.005 163.761Z" fill="#E6E6E6" />
        <path d="M63.2794 199.754C78.6257 199.754 91.0662 185.637 91.0662 168.222C91.0662 150.808 78.6257 136.691 63.2794 136.691C47.9332 136.691 35.4926 150.808 35.4926 168.222C35.4926 185.637 47.9332 199.754 63.2794 199.754Z" fill="#3F3D56" />
        <path d="M44.1234 168.222C44.1234 156.236 52.7167 146.485 63.2794 146.485C73.8421 146.485 82.4355 156.236 82.4355 168.222C82.4355 180.209 73.8421 189.96 63.2794 189.96C52.7167 189.96 44.1234 180.209 44.1234 168.222ZM44.5444 168.222C44.5444 179.945 52.9488 189.482 63.2794 189.482C73.6101 189.482 82.0145 179.945 82.0145 168.222C82.0145 156.5 73.6101 146.962 63.2794 146.962C52.9488 146.962 44.5444 156.5 44.5444 168.222Z" fill="white" />
        <path d="M46.86 168.222C46.86 178.513 54.2112 186.855 63.2794 186.855C72.3477 186.855 79.6989 178.513 79.6989 168.222C79.6989 157.932 72.3477 149.59 63.2794 149.59C54.2112 149.59 46.86 157.932 46.86 168.222ZM73.9526 163.761L71.0434 165.912L69.9257 163.966L73.9526 163.761ZM69.5237 174.703L70.2984 172.553L72.7379 176.195L69.5237 174.703ZM62.0744 182.077L64.1215 178.137V182.077H62.0744ZM62.0744 159.264L64.1215 155.323V159.264H62.0744ZM52.979 176.195L55.4184 172.553L56.1931 174.703L52.979 176.195ZM51.7642 163.761L55.7911 163.966L54.6734 165.912L51.7642 163.761Z" fill="#E6E6E6" />
        <path d="M179.268 101.098H195.267V97.2758H179.268V101.098Z" fill="#3F3D56" />
        <path d="M377.868 180.461C377.601 180.395 377.373 181.09 377.142 181.017C376.911 180.944 377.057 180.228 376.734 179.39C376.676 179.239 376.309 178.286 375.936 178.308C375.228 178.351 375.118 181.861 374.074 182.025C373.845 182.061 373.547 181.939 372.831 182.024C372.547 182.058 372.395 182.101 372.332 182.23C372.243 182.413 372.408 182.611 372.622 183.136C372.943 183.924 372.795 184.032 373.094 184.609C373.315 185.037 373.513 185.202 373.447 185.361C373.355 185.585 372.899 185.399 372.748 185.649C372.595 185.903 372.862 186.439 373.111 186.781C373.577 187.425 374.11 187.575 374.581 187.843C375.091 188.134 375.767 188.701 376.376 189.923L381.444 201C380.443 198.68 377.785 192.215 376.876 189.718C376.613 188.997 376.364 188.244 376.622 187.514C376.871 186.811 377.559 186.213 378.111 185.105C378.176 184.976 378.351 184.613 378.229 184.416C378.129 184.252 377.917 184.35 377.821 184.199C377.693 183.996 377.97 183.655 378.13 183.046C378.243 182.616 378.241 182.272 378.239 181.975C378.239 181.886 378.223 180.55 377.868 180.461V180.461V180.461Z" fill="#F2F2F2" />
        <path d="M-17 199.931C-17 200.246 -16.6104 200.5 -16.1253 200.5H401.422C401.907 200.5 402.297 200.246 402.297 199.931C402.297 199.616 401.907 199.363 401.422 199.363H-16.1253C-16.6104 199.363 -17 199.616 -17 199.931Z" fill="#CCCCCC" />
        <path d="M195.165 196.341L201.011 196.341L203.791 170.754L195.164 170.755L195.165 196.341Z" fill="#FFB6B6" />
        <path d="M215.193 196.191C215.375 196.539 215.471 197.662 215.471 198.066C215.471 199.309 214.583 200.317 213.487 200.317L195.384 200.317C194.636 200.317 194.03 199.63 194.03 198.782V197.926C194.03 197.926 193.135 195.356 194.978 192.187C194.978 192.187 197.27 194.668 200.694 190.783L201.704 188.707L209.013 194.773L213.065 195.339C213.951 195.463 214.737 195.32 215.193 196.191H215.193L215.193 196.191Z" fill="#2F2E41" />
        <path d="M168.901 196.341L174.747 196.341L177.528 170.754L168.9 170.755L168.901 196.341Z" fill="#FFB6B6" />
        <path d="M188.929 196.191C189.111 196.539 189.207 197.662 189.207 198.066C189.207 199.309 188.319 200.317 187.223 200.317L169.12 200.317C168.372 200.317 167.766 199.63 167.766 198.782V197.926C167.766 197.926 166.871 195.356 168.715 192.187C168.715 192.187 171.006 194.668 174.43 190.783L175.44 188.707L182.749 194.773L186.801 195.339C187.687 195.463 188.473 195.32 188.929 196.191H188.929L188.929 196.191Z" fill="#2F2E41" />
        <path d="M194.239 21.6306L195.349 33.3842L182.402 32.1248L184.621 21.2108L194.239 21.6306Z" fill="#FFB6B6" />
        <path opacity="0.1" d="M194.239 21.6306L195.349 33.3842L182.402 32.1248L184.621 21.2108L194.239 21.6306Z" fill="black" />
        <path d="M189.615 23.0998C194.314 23.0998 198.123 18.7773 198.123 13.4451C198.123 8.11299 194.314 3.79044 189.615 3.79044C184.916 3.79044 181.107 8.11299 181.107 13.4451C181.107 18.7773 184.916 23.0998 189.615 23.0998Z" fill="#FFB6B6" />
        <path d="M195.164 28.5568L209.406 38.0016L204.739 63.6075L207.926 98.0286L205.706 182.402L192.02 180.723L190.17 108.943L179.443 183.242H166.152L168.345 103.066L175.004 69.0645L170.935 32.1248L183.327 27.7173L195.164 28.5568Z" fill="#2F2E41" />
        <path d="M195.719 16.1736C195.719 16.1736 196.459 13.2352 198.123 13.4451C199.788 13.655 200.158 11.9759 199.788 11.1364C199.418 10.2969 198.678 6.09917 198.678 6.09917C198.678 6.09917 199.048 3.16078 196.829 2.74102C194.609 2.32125 193.869 1.90148 193.499 1.06194C193.129 0.222401 187.581 -0.617134 185.731 0.642171C183.882 1.90148 182.402 4.31763 181.107 4.99852C179.813 5.6794 178.703 6.93871 179.443 9.03755C180.182 11.1364 181.255 15.2413 181.255 15.2413C181.255 15.2413 183.142 14.4945 183.512 15.7539C183.882 17.0132 182.402 15.3341 184.252 11.9759C186.101 8.61779 186.101 5.25963 189.06 6.51894C192.02 7.77825 195.349 7.35848 194.979 9.87709C194.609 12.3957 195.719 16.1736 195.719 16.1736L195.719 16.1736Z" fill="#2F2E41" />
        <path d="M202.062 90.4985C200.281 92.6378 199.81 95.4145 201.01 96.7001C202.21 97.9858 204.626 97.2935 206.407 95.1531C207.129 94.3091 207.662 93.2813 207.962 92.1557L215.405 82.983L211.537 79.1111L204.61 88.5648C203.637 88.9691 202.763 89.6322 202.062 90.4985Z" fill="#FFB6B6" />
        <path d="M209.256 37.7917L221.79 62.025L223.647 73.088L211.577 90.4727L206.47 83.0974L212.505 73.088L202.756 53.596L209.256 37.7917Z" fill="#2F2E41" />
        <path d="M174.014 88.242V59.6697C174.014 55.3148 177.136 51.7721 180.973 51.7721H219.462C223.3 51.7721 226.422 55.3148 226.422 59.6697V88.242C226.422 92.5969 223.3 96.1396 219.462 96.1396H180.973C177.136 96.1396 174.014 92.5969 174.014 88.242Z" fill="#17C690" />
        <path d="M192.731 69.8058H206.041V66.0298H192.731V69.8058Z" fill="#3F3D56" />
        <path d="M204.95 95.8865V88.3346H194.136V95.8865H204.95Z" fill="#3F3D56" />
        <path d="M205.458 59.5771V52.0252H194.643V59.5771H205.458Z" fill="#3F3D56" />
        <path d="M177.909 85.0415C179.689 87.1808 180.16 89.9575 178.96 91.2431C177.76 92.5287 175.344 91.8365 173.563 89.6961C172.842 88.8521 172.308 87.8243 172.008 86.6987L164.565 77.526L168.433 73.6541L175.36 83.1078C176.334 83.5121 177.208 84.1752 177.909 85.0415Z" fill="#FFB6B6" />
        <path d="M170.715 32.3347L158.18 56.568L156.323 67.631L168.393 85.0157L173.5 77.6404L167.465 67.631L177.214 48.139L170.715 32.3347Z" fill="#2F2E41" />
        <path d="M14.8562 147.886C21.1342 147.886 26.2235 142.86 26.2235 136.659C26.2235 130.458 21.1342 125.432 14.8562 125.432C8.57817 125.432 3.48885 130.458 3.48885 136.659C3.48885 142.86 8.57817 147.886 14.8562 147.886Z" fill="#E6E6E6" />
    </g>
    <defs>
        <clipPath id="clip0_3_131">
            <rect width="423" height="201" fill="white" transform="translate(-17)" />
        </clipPath>
    </defs>
</svg>